<svg viewBox="0 0 326 326" fill="none" xmlns="http://www.w3.org/2000/svg"><mask id="mask0" mask-type="alpha" maskUnits="userSpaceOnUse" x="0" y="0" width="326" height="326"><rect width="326" height="326" rx="6" fill="#89E219"/></mask><g mask="url(#mask0)"><rect width="30.3304" height="68.9038" rx="15.1652" transform="matrix(-0.707107 -0.707107 -0.707107 0.707107 140.742 223.854)" fill="#2FE3FF"/><circle r="20.5159" transform="matrix(-0.978517 -0.206167 -0.206167 0.978517 202.086 141.872)" fill="#FF9600"/><circle r="21.0352" transform="matrix(-0.978517 -0.206167 -0.206167 0.978517 184.732 115.92)" fill="#FF9600"/><path d="M248.2 192.765C256.557 173.124 245.639 149.72 224.753 145.32L160.654 131.814C147.926 129.133 134.909 134.507 129.253 146.22C122.057 161.119 112.661 184.371 106.369 214.237C99.7274 245.758 98.2747 276.428 98.2276 296.651C98.1945 310.81 108.422 322.51 122.277 325.429L186.463 338.953C206.613 343.199 225.541 327.512 226.081 306.928C226.649 285.242 228.201 259.236 232.101 240.727C235.365 225.236 241.777 207.861 248.2 192.765Z" fill="#FFC6B7"/><rect width="31.6827" height="41.5511" rx="15.8414" transform="matrix(-0.954394 -0.29855 -0.29855 0.954394 196.738 155.558)" fill="white"/><rect width="24.9335" height="41.5558" rx="12.4667" transform="matrix(-0.954394 -0.29855 -0.29855 0.954394 162.523 144.861)" fill="white"/><rect width="14.0235" height="22.8531" rx="7.01175" transform="matrix(-0.954394 -0.29855 -0.29855 0.954394 189.277 162.496)" fill="#3D3D3D"/><circle r="5.71328" transform="matrix(-0.954394 -0.29855 -0.29855 0.954394 169.9 161.314)" fill="white"/><rect width="11.4278" height="22.8557" rx="5.71392" transform="matrix(-0.954394 -0.29855 -0.29855 0.954394 159.555 154.681)" fill="#3D3D3D"/><circle r="5.71328" transform="matrix(-0.954394 -0.29855 -0.29855 0.954394 144.627 153.404)" fill="white"/><path fill-rule="evenodd" clip-rule="evenodd" d="M231.828 242.064C217.074 238.146 192.598 231.817 174.657 228.037C150.379 222.922 113.939 217.39 105.964 216.198C102.489 233.218 100.508 249.929 99.4223 264.818L226.638 291.622C227.452 274.365 228.99 256.19 231.828 242.064Z" fill="#2FE3FF"/><path fill-rule="evenodd" clip-rule="evenodd" d="M226.818 288.073C216.008 284.516 194.296 277.987 166.262 272.699C135.732 266.94 110.414 263.312 99.6508 261.856C98.5927 275.122 98.2542 287.063 98.2318 296.653C98.1988 310.812 108.426 322.513 122.281 325.432L186.468 338.956C206.617 343.201 225.545 327.515 226.085 306.93C226.243 300.894 226.478 294.523 226.818 288.073Z" fill="#0084C2"/><path fill-rule="evenodd" clip-rule="evenodd" d="M214.284 143.111L208.057 165.267C205.199 175.436 211.126 185.996 221.295 188.854L246.816 196.028C247.273 194.928 247.732 193.838 248.191 192.76C256.548 173.119 245.629 149.715 224.743 145.315L214.284 143.111Z" fill="#FFB67A"/><path d="M144.31 179.248C142.011 181.811 142.224 185.751 144.787 188.05C147.349 190.349 151.289 190.135 153.588 187.573C155.887 185.011 156.773 175.079 156.58 174.905C156.386 174.732 146.608 176.686 144.31 179.248Z" fill="#EE9583"/><path d="M224.165 204.054C218.075 202.771 214.178 196.793 215.461 190.703C216.744 184.612 222.722 180.715 228.812 181.998C234.903 183.282 238.8 189.259 237.516 195.35C236.233 201.44 230.256 205.337 224.165 204.054Z" fill="#FFC6B7"/><rect x="180.066" y="257.201" width="26.7566" height="62.643" rx="13.3783" transform="rotate(-76.592 180.066 257.201)" fill="#2FE3FF"/><rect width="31.3017" height="73.2453" rx="15.6509" transform="matrix(0.064556 -0.997914 -0.997914 -0.064556 148.605 271.462)" fill="#2FE3FF"/><path d="M125.995 157.889C129.389 142.009 145.014 131.887 160.894 135.282L203.816 144.456L196.186 180.148L124.511 164.827L125.995 157.889Z" fill="#FFC6B7"/><rect x="180.191" y="211.959" width="32.1542" height="74.6984" rx="16.0771" transform="rotate(48.7832 180.191 211.959)" fill="#2FE3FF"/><path d="M164.402 270.4L185.283 249.093" stroke="#00C2FF" stroke-width="3.40902" stroke-linecap="round"/><path d="M108.663 248.451C106.557 247.075 100.881 244.488 95.0273 245.148" stroke="#00C2FF" stroke-width="3.40902" stroke-linecap="round"/><path d="M107.578 247.711C106.763 245.935 104.103 241.891 99.9835 239.923" stroke="#00C2FF" stroke-width="3.40902" stroke-linecap="round"/><path d="M149.57 197.742C152.695 192.984 159.712 186.066 162.78 196.464" stroke="#EE9583" stroke-width="3.40902" stroke-linecap="round"/><path d="M136.36 238.011C136.02 237.671 127.696 231.762 123.577 228.85C120.736 227.003 112.999 224.58 107.384 231.833C102.27 238.438 105.963 245.895 109.088 248.665L130.608 268.906" stroke="#00C2FF" stroke-width="3.40902" stroke-linecap="round"/><circle cx="150.423" cy="242.485" r="15.7667" fill="#FFC6B7"/><path d="M164.037 268.48L166.481 270.803L164.829 272.318L160.873 271.686L164.037 268.48Z" fill="#00C2FF"/></g></svg>