<svg viewBox="0 0 326 326" fill="none" xmlns="http://www.w3.org/2000/svg"><mask id="mask0" mask-type="alpha" maskUnits="userSpaceOnUse" x="0" y="0" width="326" height="326"><rect width="326" height="326" rx="6" fill="white"/><rect x="1" y="1" width="324" height="324" rx="5" stroke="#E5E5E5" stroke-opacity="0.7" stroke-width="2"/></mask><g mask="url(#mask0)"><path d="M117.427 127.878C124.664 95.6106 154.429 72.8083 187.331 76.1222V76.1222C216.025 79.0121 238.975 101.198 238.205 130.026C237.974 138.679 237.431 148.184 236.413 158.296C232.652 195.641 223.289 223.798 220.374 231.891C219.865 233.302 218.463 234.152 216.971 234.002L85.8412 220.795C83.3488 220.544 81.9655 217.74 83.2465 215.587C89.7938 204.585 105.888 175.671 113.205 145.887C114.693 139.83 116.105 133.776 117.427 127.878Z" fill="#A570FF"/><path d="M128.804 128.155C134.925 101.451 159.966 83.4769 187.225 86.2224V86.2224C214.579 88.9774 235.568 111.725 236.116 139.212L236.979 182.426C237.294 198.179 223.764 210.663 208.087 209.084L142.084 202.436C126.359 200.852 115.583 185.84 119.114 170.434L128.804 128.155Z" fill="#FFC6B7"/><rect x="221.391" y="132.912" width="29.0601" height="24.5893" rx="12.2946" transform="rotate(5.75138 221.391 132.912)" fill="#FFC6B7"/><path d="M200.978 149.928C211.264 147.002 223.778 135.931 228.748 130.761L226.471 125.579L211.249 127.061L198.296 144.49C197.854 146.742 197.771 150.983 200.978 149.928Z" fill="#FFC6B7"/><path d="M202.003 148.723C202.931 139.51 211.152 132.794 220.365 133.722L234.265 135.122C235.187 135.215 235.858 136.037 235.766 136.958L234.029 154.195C233.102 163.408 224.881 170.124 215.668 169.196L208.44 168.468C203.834 168.004 200.475 163.894 200.939 159.287L202.003 148.723Z" fill="white"/><path d="M195.886 148.107C196.814 138.894 190.098 130.673 180.885 129.746L166.985 128.345C166.063 128.253 165.241 128.924 165.148 129.846L163.412 147.083C162.484 156.295 169.201 164.516 178.413 165.444L185.642 166.172C190.248 166.636 194.358 163.278 194.822 158.671L195.886 148.107Z" fill="white"/><rect x="204.113" y="151.108" width="8.23162" height="9.65568" rx="4.11581" transform="rotate(5.75138 204.113 151.108)" fill="#3D3D3D"/><rect x="184.895" y="148.545" width="7.8679" height="10.1991" rx="3.93395" transform="rotate(5.75138 184.895 148.545)" fill="#3D3D3D"/><path fill-rule="evenodd" clip-rule="evenodd" d="M234.422 150.338L201.075 157.985L202.007 148.723C202.935 139.51 211.156 132.794 220.369 133.722L234.269 135.122C235.191 135.215 235.862 136.037 235.769 136.958L234.422 150.338Z" fill="#A570FF"/><path fill-rule="evenodd" clip-rule="evenodd" d="M195.01 156.807L163.83 142.937L165.148 129.846C165.241 128.924 166.063 128.253 166.985 128.346L180.885 129.746C190.098 130.673 196.814 138.894 195.886 148.107L195.01 156.807Z" fill="#A570FF"/><path d="M50.9929 360.308C50.2396 361.287 50.4218 362.69 51.3999 363.443L65.8916 374.605C66.8697 375.358 68.2733 375.176 69.0266 374.198L144.728 275.906L126.694 262.017L50.9929 360.308Z" fill="#A570FF"/><path d="M131.708 382.787C131.729 384.021 132.747 385.005 133.981 384.984L151.793 384.683C153.027 384.662 154.011 383.645 153.99 382.41L151.896 258.364L129.614 258.74L131.708 382.787Z" fill="#A570FF"/><path d="M160.438 205.455C160.888 204.721 161.72 204.31 162.577 204.4L187.42 206.999C189.01 207.166 189.917 208.898 189.147 210.299L151.107 279.51L124.383 264.326L160.438 205.455Z" fill="#593F86"/><path d="M207.843 166.435C209.319 169.713 207.893 173.551 204.656 175.009C201.42 176.467 197.6 174.992 196.124 171.714C194.647 168.436 196.838 158.304 197.082 158.194C197.327 158.084 206.367 163.157 207.843 166.435Z" fill="#EE9583"/><path d="M196.71 159.022L176.032 128.797L187.518 125.805L200.352 136.298L196.71 159.022Z" fill="#FFC6B7"/><path d="M191.578 167.886C184.584 157.079 171.095 156.322 165.224 157.294L165.232 171.546L185.444 178.633L191.578 167.886Z" fill="#FFC6B7"/><path d="M200.551 158.507L223.367 133.475L210.402 130.996L196.537 138.8L200.551 158.507Z" fill="#FFC6B7"/><path fill-rule="evenodd" clip-rule="evenodd" d="M180.977 76.6007C179.103 80.5316 177.864 84.8467 177.402 89.4283C175.252 110.78 190.817 129.832 212.168 131.982L237.868 134.571C236.023 104.269 212.477 79.7602 182.256 76.7164C181.829 76.6734 181.403 76.6348 180.977 76.6007Z" fill="#A570FF"/><path d="M121.493 137.731C122.606 126.678 126.988 116.208 134.079 107.657L148.134 90.7092L158.927 83.9328L186.397 84.4528L155.337 224.387C154.969 226.046 153.418 227.167 151.728 226.997L112.896 223.085L121.493 137.731Z" fill="#A570FF"/><path d="M195.637 144.629L198.855 150.309L204.432 142.384" stroke="#EE9583" stroke-width="2.87184" stroke-linecap="round" stroke-linejoin="round"/><path d="M177.234 171.636C180.739 170.271 188.273 171.005 190.365 184.859" stroke="#EE9583" stroke-width="4.30776" stroke-linecap="round" stroke-linejoin="round"/><rect x="158.066" y="215.278" width="20.4226" height="61.6724" rx="10.2113" transform="rotate(-10.8806 158.066 215.278)" fill="#593F86"/><rect x="126.691" y="181.637" width="21.7394" height="61.9079" rx="10.8697" transform="rotate(-27.6603 126.691 181.637)" fill="#593F86"/><path d="M182.17 274.869C185.456 272.995 187.569 269.584 187.783 265.807V265.807C188.101 260.214 184.223 255.253 178.72 254.209L146.578 248.114C143.67 247.563 140.838 249.381 140.13 252.255L132.284 284.075C130.201 292.521 139.243 299.353 146.799 295.044L182.17 274.869Z" fill="#593F86"/><path d="M134.84 268.6L140.086 251.234C140.498 249.869 141.848 249.012 143.257 249.232C151.673 250.545 166.633 253.112 174.548 255.318C177.512 256.144 180.426 258.414 182.086 261.421" stroke="#492D7A" stroke-width="2.87184" stroke-linecap="round" stroke-linejoin="round"/><path d="M145.403 197.08C150.117 194.187 152.174 188.37 150.256 183.182V183.182C148.247 177.752 142.51 174.672 136.883 176.037C129.13 177.917 118.219 180.604 109.5 182.915C98.5194 185.825 84.3958 194.522 77.3373 199.171C74.6353 200.951 73.4093 204.242 74.1737 207.386L80.3277 232.696C81.7643 238.604 89.0587 240.777 93.5298 236.656C101.419 229.384 112.111 219.729 118.351 214.93C125.121 209.725 137.294 202.058 145.403 197.08Z" fill="#593F86"/><path d="M172.754 254.87C173.741 253.434 176.505 250.472 179.664 250.113" stroke="#492D7A" stroke-width="2.87184" stroke-linecap="round" stroke-linejoin="round"/><path d="M150.766 220.048L143.676 232.972L152.65 231.356L150.766 220.048Z" fill="#593F86"/><path fill-rule="evenodd" clip-rule="evenodd" d="M285.639 50.606C285.371 52.791 284.658 54.8131 283.604 56.5928C285.905 59.6688 287.069 63.6032 286.564 67.7176C285.527 76.1793 277.826 82.1979 269.364 81.1603C265.195 80.649 261.618 78.5197 259.187 75.4787L242.779 88.4374C241.633 89.3424 240.024 88.1583 240.548 86.7953L248.01 67.3836C241.184 65.1107 236.672 58.2785 237.582 50.8616C238.619 42.3999 246.32 36.3813 254.782 37.4189C256.191 37.5917 257.533 37.9493 258.785 38.4645C262.04 34.8133 266.973 32.7655 272.196 33.4059C280.658 34.4435 286.676 42.1442 285.639 50.606Z" fill="#B8E1FF"/><path fill-rule="evenodd" clip-rule="evenodd" d="M67.7493 53.7286C68.2935 55.8645 69.2588 57.7819 70.5338 59.4145C68.6447 62.7569 67.9921 66.8047 69.0149 70.8189C71.1198 79.0801 79.5231 84.0709 87.7843 81.966C91.8553 80.9288 95.1321 78.362 97.157 75.0365L115.08 85.8043C116.332 86.5563 117.776 85.1773 117.083 83.892L107.214 65.5852C113.694 62.4623 117.3 55.1128 115.455 47.8725C113.35 39.6113 104.947 34.6206 96.6854 36.7254C95.308 37.0764 94.0216 37.6024 92.8437 38.2737C89.1507 35.0646 83.9965 33.6597 78.8964 34.9591C70.6352 37.064 65.6444 45.4674 67.7493 53.7286Z" fill="#B8E1FF"/></g></svg>