<?xml version="1.0" encoding="UTF-8"?>
<svg xmlns="http://www.w3.org/2000/svg" version="1.1" viewBox="0 0 96.52 86.45">
  <defs>
    <style>
      .cls-1 {
        fill: #4a4b4b;
      }
    </style>
  </defs>
  <!-- Generator: Adobe Illustrator 28.6.0, SVG Export Plug-In . SVG Version: 1.2.0 Build 709)  -->
  <g>
    <g id="Capa_2">
      <path class="cls-1" d="M79.81,68.34c-12.9,5.56-25.85,6.19-32.96,5.5-1.22-.12-27.32-3.02-30.99-18.78-1.88-8.07,2.89-16.24,9.07-22.47,2.31,1.2,4.92,1.89,7.7,1.89,8.78,0,16-6.79,16.79-15.46,3.97-.85,8.44-1.19,12.97-.32.65,8.82,7.92,15.77,16.81,15.77s16.87-7.64,16.87-17.06S88.51.39,79.2.39c-7.55,0-13.94,5.01-16.09,11.92-4.99-.33-9.72-.37-14.36.06C46.6,5.43,40.2.39,32.62.39,23.3.39,15.75,8.02,15.75,17.44c0,2.51.55,4.89,1.51,7.03-3.93,3-7.75,6.78-10.85,11.52-2.29,3.51-7.12,10.89-5.89,19.68.62,4.4,2.64,8.2,3.07,8.98,2.48,4.54,5.57,7.17,7.19,8.52,10.34,8.62,27.88,11.78,27.88,11.78,6.94.93,29.32,3.42,44.57-4.5,3.2-1.66,11.24-5.83,12.51-12.73.18-.95.46-2.61-.46-3.58-2.3-2.43-9.85,1.77-15.47,4.19Z"/>
    </g>
  </g>
</svg>